<svg height="512" width="512" xmlns="http://www.w3.org/2000/svg"><path d="m267.7805481 87.9378967c52.3187256-4.4540405 93.5430603-1.0505524 139.2237244 8.86866 58.3309326 12.6661682 104.9957275 16.666008 104.9957275-14.8327103 0-66.3440933-192.5175171-11.3505478-244.8174744-.6908264-1.7331238-4.3082352-5.9818726-7.358223-10.9595032-7.358223-5.7960815 0-10.6058807 4.1330719-11.6003571 9.5771866-50.9464569 2.3009338-84.2386169 3.8639755-152.0330353-10.7736053-60.2673148-13.0124092-93.5452526-7.4490356-92.56873 17.7451248 2.3809452 61.4285202 164.4038696 17.637886 245.4739227-.05896 1.1291656 2.4433212 3.0839844 4.4282227 5.5158234 5.6153107v11.854805c-3.8983917 1.9029312-6.5862122 5.8598022-6.5862122 10.4469604 0 4.767746 2.9000854 8.8608398 7.0493317 10.6673431-6.8667908 2.2160339-11.8424683 8.7196198-11.8425293 16.4038696 0 5.6168365 2.6693268 10.590271 6.7809753 13.7335205-195.4176247 21.3079072-221.7393639 211.4273988-218.1276943 254.7674257 8.0547848 63.705658 446.6719055 65.1701355 455.4588928 0 1.4246826-116.8236694-73.7903137-240.7975464-217.0338745-254.6385956 4.2085571-3.1348114 6.9512024-8.1682434 6.9512634-13.8623505 0-7.8791809-5.2350769-14.5073395-12.3726196-16.554184 3.9777527-1.8741913 6.733429-5.8725052 6.733429-10.5170288 0-4.7530441-2.8828125-8.8342972-7.0113525-10.6493454v-11.450035c3.4277629-1.506958 5.9978618-4.573906 6.7702922-8.2943421zm-20.3777161 71.9097901c.7412415.4868011 1.5214233.9160919 2.3362122 1.2832031-38.2142029 18.4910736-50.3278503 146.4593506-53.4525299 203.0759583-39.86203 2.7081909-75.8660507 6.9191895-106.4390182 13.2457886 12.9681548-105.1994325 62.2765731-207.2508851 157.5553359-217.60495zm222.006012 252.4029541c0 17.433197-95.9031982 35.2859192-216.9014893 35.2859192-93.4947205 0-195.2528381-12.0294189-210.7745972-35.8295288 0 0 30.0659714-34.1480103 206.9587097-34.1480103 196.3112794 0 220.7173768 34.6916199 220.7173768 34.6916199zm-46.7385254-33.7889099c-34.9535828-8.3361206-70.771698-12.8161621-107.3289185-13.9994202-2.5325012-60.4630432-14.2006531-183.8590088-52.0123291-203.22229 1.1253052-.4870453 2.1805115-1.1023712 3.1654358-1.8121185 87.5863953 7.3718261 151.1860352 124.3890838 156.1758118 219.0338287z"/></svg>